HIERARCHY
ROOT root
{
	OFFSET 0.00 0.00 0.00
	CHANNELS 6 Xposition Yposition Zposition Zrotation Xrotation Yrotation
	JOINT lowerback
	{
		OFFSET 0 0 0
		CHANNELS 6 Xposition Yposition Zposition Zrotation Xrotation Yrotation
		JOINT upperback
		{
			OFFSET -0.214371 12.3768 -1.12219
			CHANNELS 6 Xposition Yposition Zposition Zrotation Xrotation Yrotation
			JOINT thorax
			{
				OFFSET -0.00137213 12.3873 0.296195
				CHANNELS 6 Xposition Yposition Zposition Zrotation Xrotation Yrotation
				JOINT lowerneck
				{
					OFFSET 0.0883157 12.5016 0.82912
					CHANNELS 6 Xposition Yposition Zposition Zrotation Xrotation Yrotation
					JOINT upperneck
					{
						OFFSET -1 10.1794 0.943522
						CHANNELS 6 Xposition Yposition Zposition Zrotation Xrotation Yrotation
						JOINT head
						{
							OFFSET 0.667525 10.2797 -1.57149
							CHANNELS 6 Xposition Yposition Zposition Zrotation Xrotation Yrotation
							End Site
							{
								OFFSET 0 0 0
							}
						}
					}
				}
				JOINT lclavicle
				{
					OFFSET 0.0883157 12.5016 0.82912
					CHANNELS 6 Xposition Yposition Zposition Zrotation Xrotation Yrotation
					JOINT lhumerus
					{
						OFFSET 20.61 4.45006 1.43784
						CHANNELS 6 Xposition Yposition Zposition Zrotation Xrotation Yrotation
						JOINT lradius
						{
							OFFSET 0 -30.3438 0
							CHANNELS 6 Xposition Yposition Zposition Zrotation Xrotation Yrotation
							JOINT lwrist
							{
								OFFSET 0 -18.964 0
								CHANNELS 6 Xposition Yposition Zposition Zrotation Xrotation Yrotation
								JOINT lhand
								{
									OFFSET 0 -9.48199 0
									CHANNELS 6 Xposition Yposition Zposition Zrotation Xrotation Yrotation
									JOINT lfingers
									{
										OFFSET 0 -3.17138 0
										CHANNELS 6 Xposition Yposition Zposition Zrotation Xrotation Yrotation
										End Site
										{
											OFFSET 0 -2.55685 0
										}
									}
								}
								JOINT lthumb
								{
									OFFSET 0 -9.48199 0
									CHANNELS 6 Xposition Yposition Zposition Zrotation Xrotation Yrotation
									End Site
									{
										OFFSET 0 -3.67114 0
									}
								}
							}
						}
					}
				}
				JOINT rclavicle
				{
					OFFSET 0.0883157 12.5016 0.82912
					CHANNELS 6 Xposition Yposition Zposition Zrotation Xrotation Yrotation
					JOINT rhumerus
					{
						OFFSET -20.61 4.45 1.44
						CHANNELS 6 Xposition Yposition Zposition Zrotation Xrotation Yrotation
						JOINT rradius
						{
							OFFSET 0 -29.5102 0
							CHANNELS 6 Xposition Yposition Zposition Zrotation Xrotation Yrotation
							JOINT rwrist
							{
								OFFSET 0 -19.2342 0
								CHANNELS 6 Xposition Yposition Zposition Zrotation Xrotation Yrotation
								JOINT rhand
								{
									OFFSET 0 -9.61712 0
									CHANNELS 6 Xposition Yposition Zposition Zrotation Xrotation Yrotation
									JOINT rfingers
									{
										OFFSET 0 -3.29215 0
										CHANNELS 6 Xposition Yposition Zposition Zrotation Xrotation Yrotation
										End Site
										{
											OFFSET 0 -2.557 0
										}
									}
								}
								JOINT rthumb
								{
									OFFSET 0 -9.61712 0
									CHANNELS 6 Xposition Yposition Zposition Zrotation Xrotation Yrotation
									End Site
									{
										OFFSET 0 -3.671 0
									}
								}
							}
						}
					}
				}
			}
		}
	}
	JOINT rfemur
	{
		OFFSET -8.46272 -9.62775 4.76248
		CHANNELS 6 Xposition Yposition Zposition Zrotation Xrotation Yrotation
		JOINT rtibia
		{
			OFFSET 1.00552e-005 -38.0331 0
			CHANNELS 6 Xposition Yposition Zposition Zrotation Xrotation Yrotation
			JOINT rfoot
			{
				OFFSET 1.14428e-005 -43.2815 0
				CHANNELS 6 Xposition Yposition Zposition Zrotation Xrotation Yrotation
				JOINT rtoes
				{
					OFFSET 0 -14.1868 -3.08763
					CHANNELS 6 Xposition Yposition Zposition Zrotation Xrotation Yrotation
					End Site
					{
						OFFSET 0 -7.27332 0
					}
				}
			}
		}
	}
	JOINT lfemur
	{
		OFFSET 9.10607 -9.62778 4.76249
		CHANNELS 6 Xposition Yposition Zposition Zrotation Xrotation Yrotation
		JOINT ltibia
		{
			OFFSET -1.01399e-005 -38.3535 0
			CHANNELS 6 Xposition Yposition Zposition Zrotation Xrotation Yrotation
			JOINT lfoot
			{
				OFFSET -1.12937e-005 -42.7176 0
				CHANNELS 6 Xposition Yposition Zposition Zrotation Xrotation Yrotation
				JOINT ltoes
				{
					OFFSET 0 -13.9965 -2.83857
					CHANNELS 6 Xposition Yposition Zposition Zrotation Xrotation Yrotation
					End Site
					{
						OFFSET 0 -7.16348 0
					}
				}
			}
		}
	}
}
MOTION
Frames: 8
Frame Time: 0.00833333
3.05832	97.427	117.51	1.45092	1.21164	-7.21547	0 0 0 -4.08972	-0.0471461	-0.398393	-0.214371 12.3768 -1.12219 -0.473048	3.44156	-0.485903	-0.00137213 12.3873 0.296195 1.77842	3.60273	-0.380496	0.0883157 12.5016 0.82912 -1.24593	-8.70472	-0.839094	-1 10.1794 0.943522 4.88222	-4.30824	-1.13966	0.667525 10.2797 -1.57149 1.70893	0.157577	-0.590413	0.0883157 12.5016 0.82912 -15	0	-0	20.61 4.45006 1.43784 15.7132	-13.3937	176.276	0 -30.3438 0 -0	35.7753	-0	0 -18.964 0 1.36628e-014	-2.25034e-015	-108.706	0 -9.48199 0 1.22245	4.37968	-2.58917e-014	0 -3.17138 0 -0	7.12502	-0	0 -9.48199 0 25	15	-1.36605e-015	0.0883157 12.5016 0.82912 15	0	-0	-20.61 4.45 1.44 -18.3028	4.35919	174.51	0 -29.5102 0 -0	35.5228	-0	0 -19.2342 0 5.10884e-016	-2.62839e-015	111.999	0 -9.61712 0 1.22	4.38	-0	0 -3.29215 0 -0	7.12502	-0	0 -9.61712 0 25	15	-7.97034e-015	-8.46272 -9.62775 4.76248 2.19795	-33.5923	3.10148	1.00552e-005 -38.0331 0 -0	32.9141	-0	1.14428e-005 -43.2815 0 -36.6694	-73.616	-37.8134	0 -14.1868 -3.08763 -0	-37.1952	-0	9.10607 -9.62778 4.76249 -8.81237	13.566	8.74429	-1.01399e-005 -38.3535 0 -0	1.77937	-0	-1.12937e-005 -42.7176 0 9.42268	-71.2163	9.94209	0 -13.9965 -2.83857 -0	-37.2764	-0
3.0375	97.4485	118.073	1.54998	1.35691	-7.0965	0 0 0 -4.10846	-0.123377	-0.410923	-0.214371 12.3768 -1.12219 -0.46377	3.41351	-0.498194	-0.00137213 12.3873 0.296195 1.79776	3.61777	-0.386652	0.0883157 12.5016 0.82912 -1.2756	-8.76841	-0.873916	-1 10.1794 0.943522 4.94156	-4.36076	-1.18417	0.667525 10.2797 -1.57149 1.73239	0.154011	-0.613025	0.0883157 12.5016 0.82912 -15	0	-0	20.61 4.45006 1.43784 15.5415	-13.3054	176.001	0 -30.3438 0 -0	35.8492	-0	0 -18.964 0 1.3663e-014	-2.24976e-015	-108.701	0 -9.48199 0 1.22245	4.37968	-2.58917e-014	0 -3.17138 0 -0	7.12502	-0	0 -9.48199 0 25	15	-1.36605e-015	0.0883157 12.5016 0.82912 15	0	-0	-20.61 4.45 1.44 -18.3072	4.16382	174.379	0 -29.5102 0 -0	34.9837	-0	0 -19.2342 0 5.23064e-016	-2.65834e-015	112.263	0 -9.61712 0 1.22	4.38	-0	0 -3.29215 0 -0	7.12502	-0	0 -9.61712 0 25	15	-7.97034e-015	-8.46272 -9.62775 4.76248 2.10448	-33.8053	2.81893	1.00552e-005 -38.0331 0 -0	31.8981	-0	1.14428e-005 -43.2815 0 -35.4641	-73.512	-36.6083	0 -14.1868 -3.08763 -0	-37.3723	-0	9.10607 -9.62778 4.76249 -8.95997	14.1903	8.8531	-1.01399e-005 -38.3535 0 -0	0.977726	-0	-1.12937e-005 -42.7176 0 8.62759	-70.8882	9.12228	0 -13.9965 -2.83857 -0	-37.5709	-0
3.01361	97.4648	118.648	1.64694	1.50886	-6.96239	0 0 0 -4.12435	-0.209263	-0.426481	-0.214371 12.3768 -1.12219 -0.451621	3.38098	-0.514119	-0.00137213 12.3873 0.296195 1.81811	3.63387	-0.39445	0.0883157 12.5016 0.82912 -1.30751	-8.83824	-0.910487	-1 10.1794 0.943522 4.99992	-4.39979	-1.23096	0.667525 10.2797 -1.57149 1.75586	0.15584	-0.636337	0.0883157 12.5016 0.82912 -15	0	-0	20.61 4.45006 1.43784 15.361	-13.1972	175.741	0 -30.3438 0 -0	35.8813	-0	0 -18.964 0 1.36625e-014	-2.25127e-015	-108.714	0 -9.48199 0 1.22245	4.37968	-2.58917e-014	0 -3.17138 0 -0	7.12502	-0	0 -9.48199 0 25	15	-1.36605e-015	0.0883157 12.5016 0.82912 15	0	-0	-20.61 4.45 1.44 -18.3081	3.97398	174.205	0 -29.5102 0 -0	34.4174	-0	0 -19.2342 0 5.36226e-016	-2.69027e-015	112.545	0 -9.61712 0 1.22	4.38	-0	0 -3.29215 0 -0	7.12502	-0	0 -9.61712 0 25	15	-7.97034e-015	-8.46272 -9.62775 4.76248 2.00454	-34.0044	2.5419	1.00552e-005 -38.0331 0 -0	30.9229	-0	1.14428e-005 -43.2815 0 -34.1448	-73.4655	-35.2771	0 -14.1868 -3.08763 -0	-37.6846	-0	9.10607 -9.62778 4.76249 -9.08232	14.7183	8.94237	-1.01399e-005 -38.3535 0 -0	0.355133	-0	-1.12937e-005 -42.7176 0 7.85544	-70.6306	8.31996	0 -13.9965 -2.83857 -0	-37.863	-0
2.98569	97.475	119.232	1.74088	1.66606	-6.81355	0 0 0 -4.1379	-0.303194	-0.444786	-0.214371 12.3768 -1.12219 -0.4364	3.34433	-0.533399	-0.00137213 12.3873 0.296195 1.83996	3.65048	-0.403774	0.0883157 12.5016 0.82912 -1.3417	-8.91409	-0.948823	-1 10.1794 0.943522 5.05874	-4.42585	-1.28004	0.667525 10.2797 -1.57149 1.77977	0.162906	-0.660357	0.0883157 12.5016 0.82912 -15	0	-0	20.61 4.45006 1.43784 15.1723	-13.0703	175.499	0 -30.3438 0 -0	35.8702	-0	0 -18.964 0 1.36612e-014	-2.2551e-015	-108.747	0 -9.48199 0 1.22245	4.37968	-2.58917e-014	0 -3.17138 0 -0	7.12502	-0	0 -9.48199 0 25	15	-1.36605e-015	0.0883157 12.5016 0.82912 15	0	-0	-20.61 4.45 1.44 -18.3049	3.79087	173.985	0 -29.5102 0 -0	33.8279	-0	0 -19.2342 0 5.50449e-016	-2.72428e-015	112.846	0 -9.61712 0 1.22	4.38	-0	0 -3.29215 0 -0	7.12502	-0	0 -9.61712 0 25	15	-7.97034e-015	-8.46272 -9.62775 4.76248 1.90192	-34.1858	2.28165	1.00552e-005 -38.0331 0 -0	29.9902	-0	1.14428e-005 -43.2815 0 -32.7291	-73.4808	-33.8368	0 -14.1868 -3.08763 -0	-38.1233	-0	9.10607 -9.62778 4.76249 -9.1776	15.1554	9.01019	-1.01399e-005 -38.3535 0 -0	-0.0939258	-0	-1.12937e-005 -42.7176 0 7.09484	-70.4398	7.52416	0 -13.9965 -2.83857 -0	-38.1516	-0
2.95316	97.479	119.828	1.83099	1.82684	-6.65044	0 0 0 -4.14976	-0.403288	-0.465541	-0.214371 12.3768 -1.12219 -0.417967	3.304	-0.555745	-0.00137213 12.3873 0.296195 1.86384	3.66701	-0.414513	0.0883157 12.5016 0.82912 -1.37826	-8.99549	-0.988956	-1 10.1794 0.943522 5.11941	-4.44018	-1.33144	0.667525 10.2797 -1.57149 1.80459	0.174772	-0.685112	0.0883157 12.5016 0.82912 -15	0	-0	20.61 4.45006 1.43784 14.9755	-12.9261	175.28	0 -30.3438 0 -0	35.8148	-0	0 -18.964 0 1.36592e-014	-2.26101e-015	-108.798	0 -9.48199 0 1.22245	4.37968	-2.58917e-014	0 -3.17138 0 -0	7.12502	-0	0 -9.48199 0 25	15	-1.36605e-015	0.0883157 12.5016 0.82912 15	0	-0	-20.61 4.45 1.44 -18.2973	3.61582	173.716	0 -29.5102 0 -0	33.2198	-0	0 -19.2342 0 5.65717e-016	-2.76024e-015	113.165	0 -9.61712 0 1.22	4.38	-0	0 -3.29215 0 -0	7.12502	-0	0 -9.61712 0 25	15	-7.97034e-015	-8.46272 -9.62775 4.76248 1.80055	-34.3453	2.04878	1.00552e-005 -38.0331 0 -0	29.1029	-0	1.14428e-005 -43.2815 0 -31.235	-73.5594	-32.3054	0 -14.1868 -3.08763 -0	-38.6705	-0	9.10607 -9.62778 4.76249 -9.24527	15.5118	9.05578	-1.01399e-005 -38.3535 0 -0	-0.384373	-0	-1.12937e-005 -42.7176 0 6.33387	-70.3074	6.72346	0 -13.9965 -2.83857 -0	-38.4358	-0
2.91549	97.4773	120.434	1.9167	1.98933	-6.47344	0 0 0 -4.16076	-0.507483	-0.488445	-0.214371 12.3768 -1.12219 -0.396279	3.26055	-0.580863	-0.00137213 12.3873 0.296195 1.89026	3.68287	-0.426556	0.0883157 12.5016 0.82912 -1.41731	-9.08152	-1.03093	-1 10.1794 0.943522 5.18323	-4.44469	-1.38518	0.667525 10.2797 -1.57149 1.83075	0.190717	-0.710651	0.0883157 12.5016 0.82912 -15	0	-0	20.61 4.45006 1.43784 14.7712	-12.7659	175.087	0 -30.3438 0 -0	35.714	-0	0 -18.964 0 1.36563e-014	-2.26924e-015	-108.869	0 -9.48199 0 1.22245	4.37968	-2.58917e-014	0 -3.17138 0 -0	7.12502	-0	0 -9.48199 0 25	15	-1.36605e-015	0.0883157 12.5016 0.82912 15	0	-0	-20.61 4.45 1.44 -18.285	3.45021	173.398	0 -29.5102 0 -0	32.5982	-0	0 -19.2342 0 5.82161e-016	-2.79836e-015	113.504	0 -9.61712 0 1.22	4.38	-0	0 -3.29215 0 -0	7.12502	-0	0 -9.61712 0 25	15	-7.97034e-015	-8.46272 -9.62775 4.76248 1.70426	-34.4784	1.85279	1.00552e-005 -38.0331 0 -0	28.2648	-0	1.14428e-005 -43.2815 0 -29.6804	-73.6991	-30.7019	0 -14.1868 -3.08763 -0	-39.3008	-0	9.10607 -9.62778 4.76249 -9.286	15.8016	9.0794	-1.01399e-005 -38.3535 0 -0	-0.538011	-0	-1.12937e-005 -42.7176 0 5.56116	-70.2211	5.90705	0 -13.9965 -2.83857 -0	-38.7149	-0
2.87227	97.4694	121.053	1.99764	2.15145	-6.28297	0 0 0 -4.1718	-0.613639	-0.513201	-0.214371 12.3768 -1.12219 -0.37142	3.21462	-0.608456	-0.00137213 12.3873 0.296195 1.9197	3.69753	-0.439796	0.0883157 12.5016 0.82912 -1.45894	-9.17079	-1.07479	-1 10.1794 0.943522 5.25131	-4.44185	-1.44126	0.667525 10.2797 -1.57149 1.85863	0.209754	-0.737046	0.0883157 12.5016 0.82912 -15	0	-0	20.61 4.45006 1.43784 14.5597	-12.591	174.927	0 -30.3438 0 -0	35.5672	-0	0 -18.964 0 1.36529e-014	-2.27944e-015	-108.957	0 -9.48199 0 1.22245	4.37968	-2.58917e-014	0 -3.17138 0 -0	7.12502	-0	0 -9.48199 0 25	15	-1.36605e-015	0.0883157 12.5016 0.82912 15	0	-0	-20.61 4.45 1.44 -18.2682	3.29566	173.03	0 -29.5102 0 -0	31.9683	-0	0 -19.2342 0 5.99672e-016	-2.83828e-015	113.86	0 -9.61712 0 1.22	4.38	-0	0 -3.29215 0 -0	7.12502	-0	0 -9.61712 0 25	15	-7.97034e-015	-8.46272 -9.62775 4.76248 1.61653	-34.5806	1.7016	1.00552e-005 -38.0331 0 -0	27.4811	-0	1.14428e-005 -43.2815 0 -28.0842	-73.8946	-29.0473	0 -14.1868 -3.08763 -0	-39.9824	-0	9.10607 -9.62778 4.76249 -9.30143	16.041	9.08215	-1.01399e-005 -38.3535 0 -0	-0.580575	-0	-1.12937e-005 -42.7176 0 4.76692	-70.1666	5.06563	0 -13.9965 -2.83857 -0	-38.9887	-0
2.82322	97.4569	121.681	2.07376	2.31096	-6.07939	0 0 0 -4.18385	-0.719667	-0.539514	-0.214371 12.3768 -1.12219 -0.343625	3.16694	-0.638219	-0.00137213 12.3873 0.296195 1.95249	3.71055	-0.454123	0.0883157 12.5016 0.82912 -1.50322	-9.26148	-1.1206	-1 10.1794 0.943522 5.32456	-4.43465	-1.4997	0.667525 10.2797 -1.57149 1.88855	0.230669	-0.764382	0.0883157 12.5016 0.82912 -15	0	-0	20.61 4.45006 1.43784 14.342	-12.4025	174.804	0 -30.3438 0 -0	35.3744	-0	0 -18.964 0 1.36487e-014	-2.29159e-015	-109.062	0 -9.48199 0 1.22245	4.37968	-2.58917e-014	0 -3.17138 0 -0	7.12502	-0	0 -9.48199 0 25	15	-1.36605e-015	0.0883157 12.5016 0.82912 15	0	-0	-20.61 4.45 1.44 -18.2468	3.1538	172.614	0 -29.5102 0 -0	31.3355	-0	0 -19.2342 0 6.18235e-016	-2.87989e-015	114.232	0 -9.61712 0 1.22	4.38	-0	0 -3.29215 0 -0	7.12502	-0	0 -9.61712 0 25	15	-7.97034e-015	-8.46272 -9.62775 4.76248 1.54025	-34.6475	1.60108	1.00552e-005 -38.0331 0 -0	26.7574	-0	1.14428e-005 -43.2815 0 -26.4681	-74.1361	-27.3659	0 -14.1868 -3.08763 -0	-40.6795	-0	9.10607 -9.62778 4.76249 -9.2939	16.247	9.06578	-1.01399e-005 -38.3535 0 -0	-0.538845	-0	-1.12937e-005 -42.7176 0 3.9438	-70.1282	4.19227	0 -13.9965 -2.83857 -0	-39.2573	-0
